<svg width="30" height="30" viewBox="0 0 30 30" fill="none" xmlns="http://www.w3.org/2000/svg">
<path fill-rule="evenodd" clip-rule="evenodd" d="M15 0C6.71573 0 0 6.71573 0 15C0 23.2843 6.71573 30 15 30C23.2843 30 30 23.2843 30 15C30 6.71573 23.2843 0 15 0ZM7.201 12.4236H10.6003V22.6372H7.201V12.4236ZM10.8242 9.26419C10.8021 8.26275 10.086 7.5 8.92311 7.5C7.76023 7.5 6.99997 8.26275 6.99997 9.26419C6.99997 10.2449 7.73776 11.0296 8.87899 11.0296H8.90071C10.086 11.0296 10.8242 10.2449 10.8242 9.26419ZM18.9452 12.1836C21.1821 12.1836 22.8591 13.6437 22.8591 16.7808L22.859 22.637H19.4598V17.1727C19.4598 15.8002 18.9679 14.8637 17.7373 14.8637C16.7982 14.8637 16.2388 15.495 15.9931 16.1049C15.9032 16.3234 15.8812 16.6279 15.8812 16.9332V22.6373H12.4814C12.4814 22.6373 12.5262 13.3821 12.4814 12.4237H15.8812V13.8704C16.3324 13.1749 17.1404 12.1836 18.9452 12.1836Z" fill="white"/>
</svg>
